<?xml version="1.0" encoding="utf-8"?>
<!-- Generator: Adobe Illustrator 24.0.0, SVG Export Plug-In . SVG Version: 6.00 Build 0)  -->
<svg version="1.1" id="Layer_1" xmlns="http://www.w3.org/2000/svg" xmlns:xlink="http://www.w3.org/1999/xlink" x="0px" y="0px"
	 viewBox="0 0 1017 312" style="enable-background:new 0 0 1017 312;" xml:space="preserve">
<style type="text/css">
	.st0{fill:#F2B92C;}
</style>
<path class="st0" d="M195.13,53.21L140.91,21.9v32.56v0.02v54.87v25.24l24.72,24.72l-24.72,24.72v26.07v54.06v32.6l54.22-31.31
	l61.27-35.37v-70.75V88.58L195.13,53.21z M228.2,213.78l-47.18,27.24l-11.92,6.86v-34.1v-19.96l4.96-2.85l14.01-8.08l11.9-6.86
	l28.22,16.42V213.78z M228.2,159.33v0.53l-28.22-16.44l-11.9-6.86l-18.97-10.94v-20.77v-34.1l11.92,6.86l47.18,27.24V159.33z"/>
<path class="st0" d="M100.57,159.31l26.25-26.25v-23.72V54.48v-0.02V21.9L72.59,53.21L11.31,88.58v70.75v70.75l61.28,35.37
	l54.22,31.31v-32.6V210.1v-24.55L100.57,159.31z M98.6,213.78v34.1l-11.9-6.86l-47.16-27.24v-21.34l28.19-16.42l11.93,6.86
	l13.99,8.08l4.96,2.85V213.78z M98.6,104.85v20.77l-18.95,10.94l-11.93,6.86l-28.19,16.44v-0.53v-54.48l47.16-27.24l11.9-6.86
	V104.85z"/>
<path class="st0" d="M331.16,211.54V114.9h49.06c10.2,0,17.63,2.57,22.3,7.72c4.67,5.15,7.01,11.02,7.01,17.63
	c0,4.81-1.36,9.17-4.07,13.06c-2.71,3.89-6.76,6.57-12.14,8.04c12.51,3.02,18.76,10.53,18.76,22.51c0,7.18-2.21,13.58-6.62,19.22
	c-4.41,5.64-13.84,8.46-28.28,8.46H331.16z M358.49,151.93h13.74c3.44,0,5.88-0.87,7.29-2.62c1.42-1.75,2.12-3.61,2.12-5.59
	c0-5.38-3.3-8.07-9.91-8.07h-13.24V151.93z M358.49,190.02h14.44c3.59,0,6.22-0.88,7.89-2.66c1.68-1.77,2.51-3.76,2.51-5.98
	c0-2.22-0.81-4.26-2.44-6.12c-1.63-1.86-4.61-2.8-8.96-2.8h-13.45V190.02z"/>
<path class="st0" d="M506.96,211.54h-24.14l-26.47-42.7c-3.4-5.48-6.82-12.13-10.28-19.96c1.56,6.23,2.34,11.52,2.34,15.86v46.8
	h-24.07V114.9h28.04l22.52,35.4c4.48,7.03,7.88,13.22,10.19,18.55c-1.51-8.26-2.27-16.71-2.27-25.35v-28.6h24.14V211.54z"/>
<path class="st0" d="M523.81,211.54V114.9h49.06c10.2,0,17.63,2.57,22.3,7.72c4.67,5.15,7.01,11.02,7.01,17.63
	c0,4.81-1.36,9.17-4.07,13.06c-2.71,3.89-6.76,6.57-12.14,8.04c12.51,3.02,18.76,10.53,18.76,22.51c0,7.18-2.21,13.58-6.62,19.22
	c-4.41,5.64-13.84,8.46-28.29,8.46H523.81z M551.14,151.93h13.74c3.44,0,5.88-0.87,7.29-2.62c1.42-1.75,2.12-3.61,2.12-5.59
	c0-5.38-3.3-8.07-9.91-8.07h-13.24V151.93z M551.14,190.02h14.44c3.59,0,6.22-0.88,7.89-2.66c1.67-1.77,2.51-3.76,2.51-5.98
	c0-2.22-0.81-4.26-2.44-6.12c-1.63-1.86-4.61-2.8-8.96-2.8h-13.45V190.02z"/>
<path class="st0" d="M607,183.57l27.54-4.96c2.31,7.79,8.26,11.68,17.84,11.68c7.46,0,11.19-1.98,11.19-5.95
	c0-2.08-0.86-3.69-2.58-4.85c-1.72-1.16-4.8-2.18-9.24-3.08c-16.95-3.25-27.83-7.49-32.64-12.73c-4.81-5.24-7.22-11.4-7.22-18.48
	c0-9.11,3.46-16.69,10.37-22.73c6.91-6.04,16.86-9.07,29.84-9.07c19.68,0,32.69,7.91,39.01,23.72l-24.57,7.43
	c-2.55-6.47-7.72-9.7-15.51-9.7c-6.47,0-9.7,2.01-9.7,6.02c0,1.79,0.73,3.19,2.19,4.18c1.46,0.99,4.3,1.93,8.5,2.83
	c11.57,2.45,19.78,4.61,24.64,6.49c4.86,1.88,8.92,5.1,12.17,9.66c3.25,4.56,4.88,9.93,4.88,16.12c0,9.78-3.96,17.7-11.89,23.77
	c-7.93,6.07-18.34,9.1-31.22,9.1C627.06,213.03,612.53,203.21,607,183.57z"/>
<path class="st0" d="M824.22,114.9l-25.63,96.64h-24.92l-13.52-53.31l-12.77,53.31H721.4l-25.68-96.64h27.91l13.52,55.62
	l13.19-55.62h23.29l14.35,55.73l13.54-55.73H824.22z"/>
<path class="st0" d="M882.25,211.54l-5.46-19.04H850.9l-5.8,19.04h-24.08l29.83-96.64h31.37l30.31,96.64H882.25z M855.95,171.4
	h15.64l-7.82-28.03L855.95,171.4z"/>
<path class="st0" d="M951.52,176.42v35.12h-30.09V114.9h41.28c10.29,0,18.11,1.18,23.47,3.54c5.36,2.36,9.6,5.97,12.74,10.83
	c3.14,4.86,4.71,10.31,4.71,16.35c0,9.21-3.21,16.64-9.63,22.3c-6.42,5.66-14.99,8.5-25.7,8.5H951.52z M951.1,155.68h9.91
	c8.73,0,13.1-3.21,13.1-9.63c0-6.04-4.04-9.06-12.11-9.06h-10.9V155.68z"/>
</svg>
