<?xml version="1.0" encoding="utf-8"?>
<!-- Generator: Adobe Illustrator 24.0.0, SVG Export Plug-In . SVG Version: 6.00 Build 0)  -->
<svg version="1.1" id="Layer_1" xmlns="http://www.w3.org/2000/svg" xmlns:xlink="http://www.w3.org/1999/xlink" x="0px" y="0px"
	 viewBox="0 0 249 281" style="enable-background:new 0 0 249 281;" xml:space="preserve">
<style type="text/css">
	.st0{fill:#F2B92C;}
</style>
<path class="st0" d="M186.09,34L131.86,2.69v32.56v0.02v54.87v25.24l24.72,24.72l-24.72,24.72v26.07v54.06v32.6l54.22-31.31
	l61.27-35.37v-70.75V69.37L186.09,34z M219.16,194.57l-47.18,27.24l-11.92,6.86v-34.1v-19.96l4.96-2.85l14.01-8.08l11.9-6.86
	l28.22,16.42V194.57z M219.16,140.12v0.53l-28.22-16.44l-11.9-6.86l-18.97-10.94V85.65v-34.1l11.92,6.86l47.18,27.24V140.12z"/>
<path class="st0" d="M91.53,140.1l26.25-26.25V90.14V35.27v-0.02V2.69L63.55,34L2.27,69.37v70.75v70.75l61.28,35.37l54.22,31.31
	v-32.6v-54.06v-24.55L91.53,140.1z M89.56,194.57v34.1l-11.9-6.86l-47.16-27.24v-21.34l28.19-16.42l11.93,6.86l13.99,8.08l4.96,2.85
	V194.57z M89.56,85.65v20.77l-18.95,10.94l-11.93,6.86l-28.19,16.44v-0.53V85.65l47.16-27.24l11.9-6.86V85.65z"/>
</svg>
