<svg width="178" height="126" viewBox="0 0 178 126" fill="none" xmlns="http://www.w3.org/2000/svg">
<path d="M0 9C0 6.79086 1.79086 5 4 5H169C171.209 5 173 6.79086 173 9V122C173 124.209 171.209 126 169 126H4.00001C1.79087 126 0 124.209 0 122V9Z" fill="#9DADBB"/>
<path d="M0 4C0 1.79086 1.79086 0 4 0H96.8042C98.1718 0 99.4446 0.698705 100.179 1.8525L115.321 25.6475C116.055 26.8013 117.328 27.5 118.696 27.5H174C176.209 27.5 178 29.2909 178 31.5V122C178 124.209 176.209 126 174 126H4C1.79086 126 0 124.209 0 122V4Z" fill="#344D68"/>
</svg>
