<svg width="36" height="36" viewBox="0 0 36 36" fill="none" xmlns="http://www.w3.org/2000/svg">
<path d="M12.6428 28.2239L7.272 31.1535C6.95683 31.3254 6.67358 31.5366 6.41003 31.7669C9.54136 34.4071 13.5835 35.9999 18 35.9999C22.3838 35.9999 26.4002 34.4309 29.5227 31.8266C29.2347 31.5835 28.9223 31.3648 28.5758 31.1922L22.8247 28.317C22.0816 27.9454 21.6122 27.186 21.6122 26.3553V24.0989C21.7739 23.9148 21.9586 23.6784 22.1563 23.3993C22.9401 22.2921 23.5331 21.0742 23.9441 19.7965C24.6817 19.569 25.2251 18.8877 25.2251 18.078V15.6694C25.2251 15.1396 24.9894 14.6662 24.6233 14.3347V10.8529C24.6233 10.8529 25.3386 5.43457 18.0007 5.43457C10.6628 5.43457 11.378 10.8529 11.378 10.8529V14.3347C11.0112 14.6662 10.7762 15.1396 10.7762 15.6694V18.078C10.7762 18.7125 11.1097 19.2708 11.609 19.5934C12.2108 22.2133 13.7866 24.0989 13.7866 24.0989V26.2996C13.786 27.1011 13.3472 27.8395 12.6428 28.2239Z" fill="#E7ECED"/>
<path d="M18.3077 0.00268041C8.36831 -0.167131 0.172539 7.75287 0.00272796 17.6923C-0.0937249 23.328 2.41812 28.3931 6.41752 31.7615C6.67903 31.5332 6.95956 31.324 7.27133 31.1542L12.6421 28.2246C13.3465 27.8402 13.7853 27.1018 13.7853 26.299V24.0982C13.7853 24.0982 12.2088 22.2126 11.6076 19.5928C11.1091 19.2702 10.7749 18.7125 10.7749 18.0774V15.6688C10.7749 15.139 11.0106 14.6655 11.3767 14.3341V10.8523C11.3767 10.8523 10.6614 5.43393 17.9993 5.43393C25.3372 5.43393 24.622 10.8523 24.622 10.8523V14.3341C24.9888 14.6655 25.2238 15.139 25.2238 15.6688V18.0774C25.2238 18.8871 24.6804 19.5683 23.9427 19.7959C23.5318 21.0735 22.9388 22.2914 22.155 23.3986C21.9573 23.6778 21.7725 23.9142 21.6109 24.0982V26.3547C21.6109 27.1854 22.0802 27.9455 22.8233 28.3163L28.5745 31.1916C28.9196 31.3641 29.2313 31.5822 29.5187 31.8246C33.3971 28.5901 35.9029 23.7538 35.9959 18.3077C36.1671 8.36826 28.2478 0.172492 18.3077 0.00268041Z" fill="#CCCCCC"/>
</svg>
