<svg width="100" height="100" viewBox="0 0 100 100" fill="none" xmlns="http://www.w3.org/2000/svg">
<path d="M25 0C21.5625 0 18.75 2.8125 18.75 6.25V93.75C18.75 97.1875 21.5625 100 25 100H87.5C90.9375 100 93.75 97.1875 93.75 93.75V25L68.75 0H25Z" fill="#E2E5E7"/>
<path d="M75 25H93.75L68.75 0V18.75C68.75 22.1875 71.5625 25 75 25Z" fill="#B0B7BD"/>
<path d="M93.75 43.75L75 25H93.75V43.75Z" fill="#CAD1D8"/>
<path d="M81.25 81.25C81.25 82.9688 79.8438 84.375 78.125 84.375H9.375C7.65625 84.375 6.25 82.9688 6.25 81.25V50C6.25 48.2812 7.65625 46.875 9.375 46.875H78.125C79.8438 46.875 81.25 48.2812 81.25 50V81.25Z" fill="#F15642"/>
<path d="M19.8721 59.2084C19.8721 58.3834 20.5221 57.4834 21.5689 57.4834H27.3408C30.5908 57.4834 33.5158 59.6584 33.5158 63.8271C33.5158 67.7771 30.5908 69.9771 27.3408 69.9771H23.1689V73.2771C23.1689 74.3771 22.4689 74.999 21.5689 74.999C20.7439 74.999 19.8721 74.3771 19.8721 73.2771V59.2084ZM23.1689 60.6303V66.8553H27.3408C29.0158 66.8553 30.3408 65.3771 30.3408 63.8271C30.3408 62.0803 29.0158 60.6303 27.3408 60.6303H23.1689Z" fill="white"/>
<path d="M38.4096 74.9986C37.5846 74.9986 36.6846 74.5486 36.6846 73.4517V59.258C36.6846 58.3611 37.5846 57.708 38.4096 57.708H44.1314C55.5502 57.708 55.3002 74.9986 44.3564 74.9986H38.4096ZM39.9846 60.758V71.9518H44.1314C50.8783 71.9518 51.1783 60.758 44.1314 60.758H39.9846Z" fill="white"/>
<path d="M59.3501 60.9582V64.9301H65.7219C66.6219 64.9301 67.5219 65.8301 67.5219 66.7019C67.5219 67.5269 66.6219 68.2019 65.7219 68.2019H59.3501V73.4488C59.3501 74.3238 58.7282 74.9957 57.8532 74.9957C56.7532 74.9957 56.0813 74.3238 56.0813 73.4488V59.2551C56.0813 58.3582 56.7563 57.7051 57.8532 57.7051H66.625C67.725 57.7051 68.375 58.3582 68.375 59.2551C68.375 60.0551 67.725 60.9551 66.625 60.9551H59.3501V60.9582Z" fill="white"/>
<path d="M78.125 84.375H18.75V87.5H78.125C79.8438 87.5 81.25 86.0938 81.25 84.375V81.25C81.25 82.9688 79.8438 84.375 78.125 84.375Z" fill="#CAD1D8"/>
</svg>
